<?xml version="1.0" standalone="no"?>
<!DOCTYPE svg PUBLIC "-//W3C//DTD SVG 20010904//EN"
 "http://www.w3.org/TR/2001/REC-SVG-20010904/DTD/svg10.dtd">
<svg version="1.0" xmlns="http://www.w3.org/2000/svg"
 width="290.000000pt" height="290.000000pt" viewBox="0 0 290.000000 290.000000"
 preserveAspectRatio="xMidYMid meet">
<metadata>
Created by potrace 1.14, written by Peter Selinger 2001-2017
</metadata>
<g transform="translate(0.000000,290.000000) scale(0.100000,-0.100000)"
fill="#000000" stroke="none">
<path d="M2584 2733 c2 -9 8 -18 15 -19 6 -1 7 0 1 3 -5 2 -8 9 -5 13 3 5 1
11 -4 14 -5 4 -8 -2 -7 -11z"/>
<path d="M2613 2728 c4 -13 -1 -22 -16 -29 -21 -9 -21 -9 3 -6 19 3 26 -1 26
-14 0 -15 -3 -16 -15 -6 -12 10 -14 9 -8 -6 4 -10 7 -21 7 -23 0 -3 6 -2 13 2
6 4 8 3 4 -1 -12 -13 -36 -15 -44 -3 -3 7 -1 8 5 4 7 -4 12 -2 12 3 0 14 -17
14 -25 1 -4 -6 -11 -8 -16 -5 -5 4 -9 1 -9 -5 0 -7 6 -10 13 -8 18 7 52 -28
36 -38 -8 -4 -10 -3 -5 4 7 12 -2 16 -42 14 -14 -1 -20 3 -16 10 4 7 3 8 -5 4
-6 -4 -8 -12 -5 -18 5 -7 1 -9 -9 -5 -10 4 -22 -1 -30 -13 -8 -11 -17 -17 -21
-12 -4 4 -7 2 -6 -3 4 -21 -13 -55 -31 -60 -19 -6 -18 -7 2 -24 15 -12 19 -20
11 -25 -7 -4 -12 -4 -12 -1 0 3 -6 0 -14 -7 -8 -7 -11 -17 -8 -23 3 -5 -2 -4
-11 4 -18 14 -24 26 -8 17 4 -3 16 3 25 13 13 14 14 18 2 18 -8 0 -14 -4 -13
-8 1 -4 -1 -6 -4 -6 -3 1 -13 -4 -22 -12 -10 -7 -17 -10 -17 -5 0 5 -5 1 -11
-9 -9 -15 -13 -16 -27 -5 -15 11 -15 11 -5 -3 7 -9 9 -20 5 -25 -4 -4 1 -2 11
5 11 9 17 10 17 2 0 -11 -12 -15 -36 -12 -6 1 -19 -8 -29 -19 -10 -11 -15 -20
-10 -20 4 0 13 7 19 15 10 14 13 14 31 0 20 -16 20 -16 -2 -6 -27 13 -41 -13
-15 -29 15 -9 15 -10 -3 -8 -12 2 -19 -2 -17 -11 1 -7 -7 -22 -19 -32 -24 -21
-34 -24 -24 -9 3 6 -1 10 -9 10 -10 0 -13 -6 -9 -17 6 -16 5 -16 -10 -4 -25
20 -3 45 25 30 16 -9 19 -8 13 2 -6 8 -4 10 5 4 9 -6 11 -4 5 5 -6 9 -4 11 6
5 8 -5 11 -5 7 0 -4 4 -3 13 2 20 7 8 5 12 -5 12 -8 0 -12 -4 -10 -8 7 -10
-22 -32 -34 -25 -5 4 -12 2 -16 -4 -4 -6 -11 -8 -16 -4 -5 3 -8 0 -7 -8 2 -8
-5 -12 -17 -11 -11 1 -14 0 -7 -3 10 -5 9 -10 -5 -26 -17 -19 -17 -20 7 -39
18 -14 20 -17 6 -12 -14 5 -17 3 -11 -7 5 -9 4 -11 -3 -6 -7 4 -12 2 -12 -4 0
-7 -7 -5 -16 4 -8 9 -21 16 -27 15 -8 0 -8 -2 1 -6 6 -2 9 -10 6 -15 -4 -7 -2
-8 4 -4 8 5 12 0 12 -13 0 -12 -5 -21 -10 -21 -6 0 -9 -5 -8 -12 2 -7 -1 -12
-7 -13 -5 0 -16 -4 -22 -8 -7 -5 -13 -5 -13 0 0 4 -5 1 -10 -7 -7 -11 -10 -11
-10 -2 0 7 -5 10 -10 7 -8 -5 -8 -11 0 -20 8 -10 7 -13 -4 -11 -9 1 -19 6 -23
11 -4 4 -3 5 3 2 6 -3 11 0 11 8 0 11 -4 12 -14 4 -7 -6 -10 -16 -6 -22 4 -6
0 -8 -8 -5 -12 5 -14 -1 -11 -23 3 -18 0 -29 -7 -29 -7 0 -9 5 -5 13 6 9 5 9
-8 0 -8 -7 -19 -9 -24 -5 -4 4 -2 -1 5 -10 7 -10 18 -15 25 -11 6 3 8 3 4 -2
-4 -4 0 -15 10 -22 9 -8 -1 -5 -23 7 l-40 22 25 -28 25 -27 -25 16 c-34 24
-47 21 -19 -4 13 -11 18 -18 12 -14 -7 3 -13 1 -13 -4 0 -6 -5 -11 -11 -11 -5
0 -7 5 -4 10 3 6 -1 13 -9 16 -9 3 -13 11 -9 17 3 6 1 7 -6 3 -6 -4 -8 -12 -5
-18 5 -8 1 -9 -10 -5 -11 5 -15 3 -10 -5 5 -8 1 -9 -12 -4 -14 5 -16 4 -8 -4
8 -8 18 -9 31 -2 16 9 19 7 20 -16 0 -15 -1 -19 -4 -9 -9 34 -30 12 -24 -26 1
-4 -9 -1 -21 7 -22 14 -23 14 -24 -14 -1 -22 3 -27 15 -22 13 5 13 4 1 -9 -15
-17 -37 -18 -59 -4 -10 5 -12 4 -7 -4 8 -12 -32 -33 -47 -24 -4 2 -10 -3 -13
-11 -3 -9 -11 -13 -18 -9 -6 4 -4 -1 4 -12 14 -17 13 -17 -10 -11 -21 6 -22 5
-7 -4 9 -6 15 -15 12 -20 -3 -5 -1 -11 4 -15 6 -3 7 -13 4 -21 -5 -12 -7 -13
-14 -3 -4 8 -11 10 -15 6 -4 -3 -1 -13 5 -21 8 -10 9 -16 1 -21 -10 -6 -14 0
-11 20 1 6 -6 1 -15 -10 -8 -11 -20 -19 -25 -17 -6 1 -8 -2 -4 -8 4 -6 15 -8
26 -5 10 4 19 2 19 -3 0 -6 -12 -8 -27 -6 -16 3 -34 5 -40 6 -16 2 -17 14 -3
21 6 3 5 4 -2 3 -7 -2 -13 -16 -12 -33 1 -28 -1 -30 -31 -27 -18 1 -32 -3 -32
-9 0 -7 -4 -20 -8 -29 -4 -11 -3 -18 5 -18 6 0 8 5 4 12 -4 7 -3 8 4 4 8 -5
10 -2 6 8 -3 9 -2 16 4 16 13 0 10 -24 -7 -44 -7 -9 -10 -16 -5 -16 4 0 0 -6
-9 -12 -16 -12 -15 -13 8 -14 14 -1 25 2 25 8 0 5 -4 7 -8 4 -5 -3 -9 2 -9 10
0 13 3 13 16 -1 14 -15 14 -17 1 -28 -19 -15 -19 -35 0 -48 13 -9 13 -10 -2
-6 -11 4 -18 -2 -22 -18 -4 -17 -11 -23 -24 -19 -16 5 -16 5 1 -6 9 -6 14 -16
11 -22 -4 -6 0 -14 7 -19 11 -7 11 -9 -3 -9 -11 0 -16 -6 -13 -20 3 -17 1 -19
-16 -10 -18 10 -25 3 -20 -23 1 -5 -3 -6 -8 -2 -6 3 -8 12 -4 20 3 11 1 13
-10 9 -8 -3 -18 -1 -22 5 -4 7 1 8 12 4 10 -3 15 -3 12 1 -4 4 -16 8 -27 11
-15 2 -19 0 -15 -11 4 -10 0 -12 -10 -8 -9 3 -15 11 -13 17 1 7 -2 2 -8 -10
-5 -13 -13 -23 -18 -23 -11 0 -10 7 3 31 10 19 9 19 -10 9 -12 -6 -21 -13 -21
-16 0 -3 4 -2 10 1 6 3 7 -1 3 -10 -3 -9 -9 -13 -12 -8 -10 14 -44 16 -35 2 4
-8 3 -10 -5 -5 -6 4 -9 13 -5 19 3 7 -2 3 -12 -8 -14 -17 -16 -17 -11 -2 8 21
-2 49 -14 41 -5 -3 -17 0 -26 6 -13 9 -14 10 -2 7 11 -4 15 2 14 22 -1 14 -5
27 -11 29 -12 3 -12 -21 1 -31 6 -5 4 -7 -5 -4 -14 4 -15 12 -8 62 2 11 -2 20
-9 20 -6 0 -15 3 -19 7 -4 4 -13 3 -21 -3 -9 -8 -17 -8 -26 0 -10 8 -17 7 -27
-2 -10 -9 -11 -9 -6 1 4 6 2 12 -5 12 -8 0 -7 5 2 17 12 15 12 16 -4 10 -12
-4 -16 -3 -11 4 4 8 -1 9 -16 4 -20 -6 -21 -5 -9 8 8 8 17 13 21 11 4 -2 10 1
14 7 4 7 3 9 -4 5 -6 -3 -15 1 -20 11 -8 13 -6 21 6 30 15 12 15 12 -3 6 -18
-6 -19 -5 -5 12 13 16 13 18 0 10 -23 -14 -52 -13 -46 1 3 7 -4 23 -15 36 -10
13 -18 17 -17 9 2 -7 -3 -16 -11 -19 -9 -3 -11 0 -6 9 5 8 5 11 0 7 -12 -12
-35 11 -28 29 5 12 1 14 -16 8 -15 -4 -23 -2 -27 10 -4 10 -9 13 -13 6 -4 -6
-12 -1 -20 12 -13 20 -13 21 2 9 13 -11 17 -10 26 7 6 11 11 26 10 33 0 7 -5
2 -10 -11 -8 -19 -12 -21 -24 -11 -11 9 -19 10 -28 1 -10 -8 -14 -7 -14 4 0 8
4 12 9 9 4 -3 8 0 8 7 0 9 3 9 14 0 12 -10 17 -8 25 7 7 14 7 19 -4 19 -7 0
-11 -7 -7 -15 9 -24 -18 -4 -29 22 -9 21 -10 21 -5 -1 3 -17 -1 -23 -15 -23
-13 0 -17 -5 -13 -17 5 -14 4 -15 -4 -4 -5 7 -15 10 -21 7 -6 -4 -11 -5 -11
-2 0 3 12 12 26 19 22 12 24 15 10 20 -9 4 -15 3 -11 -2 6 -11 -22 -8 -32 4
-4 4 -2 5 5 1 7 -4 12 -1 12 9 0 10 5 13 12 9 7 -4 8 -3 4 5 -6 9 -11 9 -22 0
-13 -10 -14 -8 -10 14 2 15 1 29 -4 32 -5 3 -7 14 -5 25 5 24 -10 27 -19 4 -3
-8 -2 -12 4 -9 5 3 7 -4 5 -15 -2 -11 0 -18 5 -15 4 3 7 -2 6 -11 -1 -9 -11
-21 -22 -26 -18 -9 -18 -8 -2 5 10 8 14 17 10 21 -4 4 -8 12 -8 17 -3 22 -5
23 -14 9 -7 -12 -9 -10 -7 7 0 12 6 19 12 16 5 -4 7 -3 3 2 -4 4 -2 15 5 23
11 14 9 14 -13 1 -14 -8 -32 -14 -40 -13 -8 1 -21 2 -28 3 -7 0 -10 6 -7 11 8
13 -18 13 -31 0 -6 -6 -15 -6 -24 1 -13 9 -13 10 0 7 8 -1 25 3 37 10 19 10
23 9 28 -9 5 -15 10 -17 20 -9 10 8 14 7 18 -2 4 -9 6 -8 6 3 1 9 -6 20 -15
23 -8 3 -12 2 -9 -4 3 -6 1 -10 -4 -10 -10 0 -15 14 -12 33 1 5 -4 5 -11 1 -7
-5 -22 -10 -33 -11 -15 -3 -17 -1 -7 9 16 16 16 33 -1 20 -10 -8 -13 -6 -13 8
0 10 4 16 8 14 13 -8 0 36 -15 51 -13 13 -16 13 -21 -1 -3 -8 -2 -13 2 -11 4
3 12 -1 19 -8 10 -10 9 -14 -3 -19 -24 -9 -31 -7 -14 4 8 5 11 10 5 11 -25 2
-47 8 -53 14 -4 4 2 5 13 3 16 -2 20 3 21 24 1 23 -2 26 -17 17 -23 -12 -25
-21 -4 -13 8 4 15 2 15 -4 0 -11 -18 -11 -37 1 -7 4 -16 0 -22 -10 -6 -10 -11
-13 -11 -7 0 14 25 36 32 29 2 -3 5 2 5 10 0 8 -4 15 -9 15 -4 0 -8 -4 -8 -8
0 -5 -11 -14 -25 -20 -20 -9 -23 -9 -18 3 3 8 8 13 12 11 4 -3 12 3 18 13 9
14 8 18 -3 18 -7 0 -11 -4 -8 -9 3 -4 0 -8 -5 -8 -6 0 -11 5 -11 11 0 5 -6 7
-12 3 -7 -4 -10 -4 -6 1 4 4 2 15 -5 23 -10 13 -9 14 10 4 12 -7 28 -12 35
-11 7 0 3 4 -10 9 -12 5 -22 14 -22 20 0 6 4 9 9 5 5 -3 12 -1 15 4 7 11 -13
9 -32 -3 -7 -4 -16 -5 -20 -1 -4 4 -1 10 6 12 6 3 12 11 12 19 0 9 5 12 12 8
7 -4 8 -3 4 4 -10 17 -11 16 -36 -20 -12 -18 -19 -25 -16 -16 3 10 1 20 -5 23
-5 4 -7 10 -5 14 3 4 1 13 -3 20 -6 10 -10 9 -14 -4 -4 -9 -3 -14 2 -11 5 4 6
-4 3 -16 -5 -19 -7 -20 -10 -5 -2 9 -8 14 -14 11 -7 -4 -8 -2 -4 4 4 7 3 12
-3 12 -5 0 -12 -6 -15 -12 -3 -7 -3 -2 0 12 l7 25 -24 -20 -24 -20 18 22 c19
22 16 43 -6 43 -7 0 -6 -4 3 -10 9 -6 10 -10 3 -10 -6 0 -15 5 -18 10 -4 6
-12 7 -18 3 -7 -4 -6 0 2 10 12 16 9 21 -12 18 -4 -1 -3 8 3 19 11 20 10 21
-12 24 -6 0 -13 8 -15 16 -4 13 -3 13 6 0 9 -13 11 -13 11 -1 0 11 4 9 14 -5
8 -10 18 -16 22 -11 4 4 2 7 -4 7 -7 0 -12 7 -12 16 0 9 5 12 12 8 6 -4 8 -3
5 3 -11 18 -52 7 -65 -18 -11 -19 -13 -19 -9 -4 3 11 8 29 13 40 5 14 0 11
-20 -10 -26 -27 -27 -28 -13 -4 12 21 13 26 2 26 -8 0 -12 -4 -10 -8 7 -10
-23 -32 -34 -25 -5 4 -14 -2 -20 -11 -9 -16 -11 -14 -11 15 0 4 10 7 22 7 12
0 22 6 24 13 1 7 0 8 -3 2 -3 -7 -10 -4 -19 7 -10 13 -12 13 -9 3 6 -17 -30
-26 -40 -10 -8 12 -53 -12 -48 -26 2 -7 0 -15 -6 -19 -7 -3 -8 0 -5 9 4 11 0
14 -15 11 -11 -2 -23 0 -26 5 -3 5 4 7 15 5 13 -3 18 0 14 7 -4 7 -3 8 4 4 7
-4 12 -3 12 2 0 11 -30 25 -38 17 -3 -3 0 -5 7 -5 7 0 9 -5 6 -10 -5 -8 -11
-8 -19 -1 -9 8 -12 -13 -14 -90 l-1 -101 19 23 c11 12 20 17 20 11 0 -7 3 -11
8 -10 12 4 51 -35 45 -45 -3 -5 3 -5 13 1 11 5 25 7 32 5 8 -3 10 2 6 14 -5
14 -4 15 4 4 6 -8 8 -20 5 -27 -2 -6 0 -15 6 -19 15 -8 14 -25 -1 -25 -6 0 -8
3 -5 7 10 9 -13 33 -32 32 -13 0 -12 -2 3 -8 23 -9 30 -40 14 -59 -6 -7 -7
-12 -2 -11 23 4 36 -2 31 -16 -4 -8 -2 -17 4 -20 5 -4 7 -11 3 -16 -3 -5 -10
-6 -16 -3 -6 4 -8 1 -6 -7 3 -8 11 -13 17 -11 7 1 10 -2 6 -8 -3 -6 -10 -8
-15 -5 -4 3 -10 -2 -14 -10 -3 -8 0 -17 6 -21 7 -4 8 -3 4 4 -4 7 -2 12 4 12
6 0 8 -11 6 -24 -2 -14 1 -27 7 -29 6 -2 4 -6 -5 -10 -13 -4 -16 -1 -13 14 4
20 -9 26 -20 9 -3 -5 -2 -10 3 -10 5 0 9 -10 9 -22 1 -47 2 -49 22 -39 16 9
18 8 14 -10 -4 -14 -8 -17 -13 -8 -6 8 -11 5 -19 -10 -7 -11 -8 -21 -4 -21 4
0 1 -5 -7 -10 -12 -8 -12 -10 -1 -10 10 0 9 -6 -5 -27 -16 -26 -16 -27 0 -14
16 13 18 13 16 0 -5 -32 0 -51 13 -46 8 3 14 -1 14 -9 0 -7 -4 -11 -9 -8 -16
10 -48 13 -43 3 4 -5 11 -7 16 -3 6 3 10 0 8 -7 -3 -25 1 -40 9 -35 4 2 9 -4
9 -15 1 -10 -3 -19 -8 -19 -6 0 -7 5 -3 12 4 7 3 8 -4 4 -17 -10 -15 -26 3
-26 8 0 15 -5 15 -11 0 -6 -8 -9 -18 -7 -11 3 -19 0 -19 -8 0 -8 3 -14 7 -14
3 0 6 -16 7 -35 0 -22 -3 -32 -10 -28 -6 4 -7 1 -1 -8 13 -21 14 -39 1 -39 -7
0 -4 -5 6 -11 9 -5 22 -7 27 -4 6 3 10 1 10 -4 0 -6 -7 -11 -15 -11 -15 0 -19
-11 -16 -39 2 -7 -2 -11 -7 -7 -5 3 -9 -1 -9 -9 0 -11 3 -12 14 -3 8 6 12 17
9 24 -3 7 -2 16 3 18 4 3 8 0 8 -7 0 -7 4 -21 8 -32 5 -15 4 -16 -3 -6 -8 11
-12 10 -21 -8 -7 -11 -8 -21 -4 -21 4 0 1 -5 -7 -10 -12 -8 -12 -10 -1 -10 10
0 9 -6 -5 -27 -16 -26 -16 -27 0 -14 16 13 18 13 16 0 -5 -35 0 -51 16 -45 8
3 12 2 9 -4 -4 -6 -17 -8 -31 -6 -14 3 -22 1 -19 -5 4 -5 11 -7 16 -3 6 3 10
0 8 -7 -3 -27 1 -40 11 -34 6 3 10 2 10 -3 0 -6 -7 -12 -15 -16 -23 -8 -18
-26 8 -26 20 -1 20 -2 4 -11 -9 -5 -21 -8 -25 -5 -5 3 -9 -1 -9 -9 0 -18 3
-18 28 -5 11 6 19 7 19 2 0 -6 -8 -12 -19 -15 -14 -3 -18 -12 -15 -36 2 -18 0
-29 -5 -26 -5 3 -13 0 -17 -7 -4 -7 -4 -10 1 -6 4 4 15 2 23 -5 13 -9 14 -9 8
1 -4 6 -2 12 4 12 6 0 8 -11 6 -24 -2 -14 1 -27 7 -29 6 -2 4 -6 -5 -10 -13
-4 -16 -1 -13 14 4 20 -9 26 -20 9 -3 -5 -2 -10 3 -10 5 0 9 -10 9 -23 1 -46
2 -48 22 -38 16 9 18 8 14 -10 -4 -14 -8 -17 -13 -8 -6 8 -11 5 -19 -10 -7
-11 -8 -21 -4 -21 4 0 1 -5 -7 -10 -12 -8 -12 -10 -1 -10 10 0 9 -6 -5 -28
-16 -25 -16 -26 0 -13 16 13 18 13 16 0 -5 -32 0 -51 13 -46 8 3 14 -1 14 -9
0 -7 -4 -11 -9 -8 -16 10 -48 13 -43 3 4 -5 11 -7 16 -3 6 3 10 0 8 -7 -3 -25
1 -40 9 -35 4 2 9 -4 9 -15 1 -10 -3 -19 -8 -19 -6 0 -7 5 -3 12 4 7 3 8 -4 4
-17 -10 -15 -26 3 -26 8 0 15 -5 15 -11 0 -6 -8 -9 -18 -7 -11 3 -19 0 -19 -8
0 -8 4 -14 9 -14 4 0 7 -3 7 -7 -4 -22 3 -33 19 -34 14 0 14 -2 -3 -8 -11 -5
-21 -13 -21 -20 -1 -6 -2 -12 -4 -13 -7 -10 -6 -37 1 -32 5 3 7 8 5 12 -2 4 6
7 19 7 13 0 21 -3 18 -7 -2 -5 -11 -8 -19 -8 -8 0 -15 -6 -15 -12 -4 -33 1
-72 8 -77 4 -3 15 -15 23 -26 15 -19 14 -19 -10 -2 -13 9 -29 17 -35 17 -5 0
-3 -5 5 -11 11 -8 12 -12 3 -16 -18 -7 -16 -20 2 -20 8 0 12 4 9 9 -3 4 -1 8
3 8 5 0 14 -10 22 -22 13 -21 13 -22 -2 -10 -10 9 -17 10 -22 2 -3 -5 -2 -10
3 -10 6 0 15 -14 21 -30 6 -18 6 -28 1 -25 -6 4 -10 12 -10 20 0 13 -29 29
-38 20 -3 -3 0 -5 7 -5 7 0 9 -5 5 -12 -5 -7 -3 -8 5 -3 7 4 5 -4 -4 -19 -9
-14 -21 -23 -26 -21 -4 3 -14 -3 -21 -15 -17 -27 -32 -26 -17 3 10 18 7 17
-15 -6 -21 -22 -30 -26 -45 -18 -17 10 -18 5 -20 -69 l-2 -80 1378 2 1378 3
-3 23 c-2 12 -1 22 3 22 3 0 10 -10 15 -22 6 -17 9 -18 9 -6 1 9 -4 20 -9 23
-6 4 -8 10 -5 15 3 5 1 12 -5 15 -8 5 -7 12 2 23 7 9 8 13 3 10 -6 -4 -16 2
-23 13 -7 10 -8 19 -3 19 6 0 13 -4 16 -10 3 -5 12 -10 18 -10 7 0 6 4 -3 10
-13 9 -7 14 12 11 4 0 5 6 1 14 -5 13 -7 13 -19 -2 -14 -17 -14 -17 -12 2 2
11 8 24 13 28 6 5 4 7 -5 4 -8 -2 -14 -9 -13 -15 2 -6 -6 -16 -17 -22 -14 -7
-20 -7 -20 0 0 5 7 10 15 10 8 0 14 3 13 8 -2 11 14 46 26 54 7 5 7 8 1 8 -5
0 -11 18 -12 40 -2 30 1 39 10 34 9 -6 9 -5 0 7 -10 12 -10 18 -1 27 7 7 8 12
4 12 -5 0 -3 7 4 16 8 8 9 14 4 13 -21 -4 -28 2 -14 11 11 7 11 10 2 10 -7 0
-10 5 -6 12 4 7 3 8 -4 4 -11 -6 -16 6 -9 19 1 2 -7 10 -17 18 -15 11 -16 16
-6 22 8 5 11 4 7 -2 -4 -6 0 -14 9 -17 8 -3 12 -11 8 -17 -4 -7 -3 -9 4 -5 6
3 15 -2 21 -11 10 -17 10 -17 11 0 0 9 -5 17 -11 17 -5 0 -7 5 -3 12 4 6 3 9
-2 5 -5 -3 -14 6 -21 19 -11 25 -5 32 13 14 7 -7 11 -6 11 4 0 8 -4 13 -9 10
-4 -3 -8 4 -8 15 0 12 6 21 13 21 7 0 8 3 2 8 -5 4 -11 24 -13 45 -2 30 0 37
10 31 10 -6 11 -5 1 7 -10 12 -10 18 -1 27 7 7 8 12 4 12 -5 0 -3 7 4 16 8 8
9 14 4 13 -21 -4 -28 2 -14 11 11 7 11 10 2 10 -7 0 -10 5 -6 12 4 7 3 8 -4 4
-11 -6 -14 -1 -11 20 0 3 -7 11 -17 18 -13 10 -14 15 -4 21 8 5 11 4 7 -2 -4
-6 0 -14 9 -17 8 -3 12 -11 8 -17 -4 -7 -3 -9 4 -5 6 3 15 -2 21 -11 10 -17
10 -17 11 0 0 9 -5 17 -11 17 -5 0 -7 5 -3 12 4 6 3 9 -2 5 -5 -3 -14 6 -21
19 -11 25 -5 32 13 14 7 -7 11 -6 11 4 0 8 -4 13 -9 10 -4 -3 -8 4 -8 15 0 12
6 21 13 21 7 0 8 3 2 8 -5 4 -11 24 -13 45 -2 30 0 37 10 31 10 -6 11 -5 1 7
-10 12 -10 18 -1 27 7 7 8 12 4 12 -5 0 -3 7 4 16 8 8 9 14 4 13 -21 -4 -28 2
-14 11 11 7 11 10 2 10 -7 0 -10 5 -6 12 4 7 3 8 -4 4 -11 -6 -14 -1 -11 20 0
3 -7 11 -17 18 -13 10 -14 15 -4 21 8 5 11 4 7 -2 -4 -6 0 -14 9 -17 8 -3 12
-11 8 -17 -4 -7 -3 -9 4 -5 6 3 15 -2 21 -11 10 -17 10 -17 11 0 0 9 -5 17
-11 17 -5 0 -7 5 -3 12 4 6 3 9 -2 5 -5 -3 -14 6 -21 19 -11 25 -5 32 13 14 7
-7 11 -6 11 4 0 8 -4 13 -9 10 -4 -3 -8 4 -8 15 0 12 6 21 13 21 7 0 8 3 2 8
-5 4 -11 24 -13 45 -2 30 0 37 10 31 10 -6 11 -5 1 7 -10 12 -10 18 -1 27 7 7
8 12 4 12 -5 0 -3 7 4 16 8 8 9 14 4 13 -21 -4 -28 2 -14 11 11 7 11 10 2 10
-7 0 -10 5 -6 12 4 7 3 8 -4 4 -11 -6 -14 -1 -11 20 0 3 -7 11 -17 18 -13 10
-14 15 -4 21 8 5 11 4 7 -2 -4 -6 0 -14 9 -17 8 -3 12 -11 8 -17 -4 -7 -3 -9
4 -5 6 3 15 -2 21 -11 10 -17 10 -17 11 0 0 9 -5 17 -11 17 -5 0 -7 5 -3 12 4
6 3 9 -2 5 -5 -3 -14 6 -21 19 -11 25 -5 32 13 14 7 -7 11 -6 11 4 0 8 -4 13
-9 10 -4 -3 -8 4 -8 15 0 12 6 21 13 21 7 0 8 3 2 8 -5 4 -11 24 -13 45 -2 30
0 37 10 31 10 -6 11 -5 1 7 -10 12 -10 18 -1 27 7 7 8 12 4 12 -5 0 -3 7 4 16
8 8 9 14 4 13 -21 -4 -28 2 -14 11 11 7 11 10 2 10 -7 0 -10 5 -6 12 4 7 3 8
-4 4 -7 -4 -12 -2 -12 3 0 20 -3 26 -18 37 -12 9 -12 13 -2 19 8 5 11 4 7 -2
-4 -6 0 -14 9 -17 8 -3 12 -11 8 -17 -4 -7 -3 -9 4 -5 6 3 15 -2 21 -11 10
-17 10 -17 11 0 0 9 -5 17 -11 17 -5 0 -7 5 -3 12 4 6 3 9 -2 5 -5 -3 -14 6
-21 19 -11 25 -5 32 13 14 7 -7 11 -6 11 4 0 8 -4 13 -9 10 -4 -3 -8 4 -8 15
0 12 6 21 13 21 7 0 8 3 2 8 -5 4 -11 24 -13 45 -2 30 0 37 10 31 10 -6 11 -5
1 7 -10 12 -10 18 -1 27 7 7 8 12 4 12 -5 0 -3 7 4 16 8 8 9 14 4 13 -21 -4
-28 2 -14 11 11 7 11 10 2 10 -7 0 -10 5 -6 12 4 7 3 8 -4 4 -11 -6 -16 6 -9
19 1 2 -7 10 -17 18 -15 11 -16 16 -6 22 8 5 11 4 7 -2 -4 -6 0 -14 9 -17 8
-3 12 -11 8 -17 -4 -7 -3 -9 4 -5 6 3 15 -2 21 -11 10 -17 10 -17 11 0 0 9 -5
17 -11 17 -5 0 -7 5 -3 12 4 6 3 9 -2 5 -5 -3 -14 6 -21 19 -12 25 -5 32 14
13 9 -9 11 -7 9 7 -2 11 -10 18 -19 18 -9 -1 -13 4 -10 12 3 8 10 11 16 7 5
-3 7 -1 3 5 -3 6 2 13 11 15 15 4 15 5 -2 6 -17 1 -18 3 -5 11 11 7 11 10 2
10 -7 0 -10 5 -7 10 4 7 -3 9 -22 5 -16 -3 -21 -2 -13 2 17 9 19 21 5 43 -8
13 -7 13 8 1 9 -7 14 -18 11 -23 -4 -6 4 -4 17 2 34 18 38 24 12 16 -17 -6
-23 -3 -23 8 0 15 -12 21 -33 17 -5 -1 -5 3 -2 9 5 8 15 6 32 -5 14 -9 27 -14
31 -11 3 3 0 6 -7 6 -7 0 -9 5 -6 10 4 6 3 9 -2 8 -4 -2 -19 5 -33 15 -27 19
-20 23 10 7 16 -9 18 -8 13 6 -3 9 -1 19 4 23 7 4 6 11 -4 20 -12 11 -14 10
-11 -4 2 -11 -4 -19 -14 -20 -16 -3 -16 -1 -3 18 13 18 12 22 -2 32 -13 10
-13 14 -3 20 8 5 11 4 7 -2 -4 -6 0 -14 9 -17 28 -11 36 -6 20 10 -11 10 -13
21 -7 32 5 9 9 21 9 25 0 5 4 12 8 15 4 4 4 2 0 -5 -4 -8 1 -11 14 -10 21 1
25 7 13 23 -5 5 7 -6 25 -26 l34 -35 -16 32 c-18 35 -21 58 -5 31 5 -10 15
-18 20 -18 6 0 8 4 4 9 -3 5 0 13 6 17 8 5 9 3 4 -5 -5 -9 -2 -12 11 -9 16 3
19 14 22 71 l3 68 -146 -2 c-141 -1 -147 -2 -142 -21z m-60 -139 c-4 -15 -8
-17 -14 -8 -6 11 4 28 18 29 0 0 -1 -9 -4 -21z m-32 -6 c12 -16 12 -17 -2 -6
-9 7 -20 9 -24 5 -5 -4 -5 -1 -1 6 9 16 11 15 27 -5z m-42 -59 c-14 -13 -15
-13 -13 8 1 13 3 25 3 28 1 2 6 -1 13 -8 10 -9 9 -16 -3 -28z m-19 -24 c8 -5
11 -10 5 -10 -5 0 -17 5 -25 10 -8 5 -10 10 -5 10 6 0 17 -5 25 -10z m-2344
-52 c4 -7 4 -10 -1 -6 -4 4 -15 2 -24 -5 -14 -11 -14 -10 -2 6 16 20 18 21 27
5z m2270 -35 c-3 -4 -6 -1 -6 5 0 7 -8 12 -17 12 -15 0 -16 2 -3 10 10 6 17 4
23 -6 5 -9 6 -18 3 -21z m-2266 7 c0 -5 -2 -10 -4 -10 -3 0 -8 5 -11 10 -3 6
-1 10 4 10 6 0 11 -4 11 -10z m2627 -104 c0 -15 -21 -16 -34 -1 -4 4 -2 5 5 1
6 -4 12 -2 12 3 0 6 4 11 8 11 5 0 9 -6 9 -14z m-2644 -19 c-3 -5 5 -6 18 -2
16 4 20 3 11 -3 -8 -5 -13 -13 -12 -18 3 -15 -17 -15 -30 1 -7 8 -9 15 -4 15
5 0 2 5 -6 10 -12 7 -10 9 7 7 12 0 19 -5 16 -10z m2092 -17 c-3 -5 -1 -10 4
-10 6 0 11 -5 11 -11 0 -8 -6 -7 -17 2 -15 12 -16 12 -10 -3 4 -12 2 -15 -9
-11 -13 5 -13 8 2 24 18 20 29 25 19 9z m535 6 c0 -2 -7 -7 -16 -10 -8 -3 -12
-2 -9 4 6 10 25 14 25 6z m-2560 -106 c0 -5 -5 -10 -11 -10 -5 0 -7 5 -4 10 3
6 8 10 11 10 2 0 4 -4 4 -10z m2554 -30 c-5 -5 -10 3 -11 18 -1 22 0 24 9 8 6
-10 6 -22 2 -26z m-2525 6 c9 -11 9 -16 -1 -22 -7 -4 -10 -4 -6 1 4 4 3 14 -3
22 -6 7 -9 13 -6 13 2 0 10 -6 16 -14z m256 4 c-3 -5 -12 -10 -18 -10 -7 0 -6
4 3 10 19 12 23 12 15 0z m2290 -19 c-3 -5 -1 -12 4 -15 8 -5 8 -34 1 -43 -2
-2 -3 -9 -4 -15 0 -7 -10 -14 -21 -15 l-20 -3 20 9 c11 5 16 10 11 10 -5 1 -3
7 3 15 10 11 8 17 -6 25 -10 6 -12 11 -5 11 6 0 11 3 11 8 -2 12 1 22 7 22 3
0 3 -4 -1 -9z m-732 -76 c-3 -9 -8 -14 -10 -11 -3 3 -2 9 2 15 9 16 15 13 8
-4z m-1432 -28 c-10 -9 -11 -8 -5 6 3 10 9 15 12 12 3 -3 0 -11 -7 -18z m2149
-28 c0 -6 -4 -7 -10 -4 -5 3 -10 11 -10 16 0 6 5 7 10 4 6 -3 10 -11 10 -16z
m17 -24 c0 -8 -4 -15 -9 -15 -10 0 -11 14 -1 23 9 10 10 9 10 -8z m-2567 -4
c0 -5 -7 -12 -16 -15 -14 -5 -15 -4 -4 9 14 17 20 19 20 6z m2541 -44 c-10 -9
-11 -8 -5 6 3 10 9 15 12 12 3 -3 0 -11 -7 -18z m-2551 -36 c0 -6 -4 -12 -8
-15 -5 -3 -9 1 -9 9 0 8 4 15 9 15 4 0 8 -4 8 -9z m7 -43 c0 -13 -1 -17 -4
-10 -3 6 -9 10 -14 6 -5 -3 -9 -1 -9 5 0 5 6 12 13 14 6 3 12 6 12 6 1 1 1 -9
2 -21z m2547 -28 c-5 -5 -10 3 -11 18 -1 22 0 24 9 8 6 -10 6 -22 2 -26z
m-901 21 c4 -1 7 -5 7 -10 0 -6 -9 -8 -20 -6 -18 4 -26 -10 -21 -38 1 -5 -3
-6 -8 -2 -6 3 -8 12 -5 19 3 8 -2 12 -15 11 -22 -1 -42 -15 -23 -15 7 0 12 -4
12 -10 0 -5 -6 -9 -12 -7 -7 1 -12 -4 -10 -10 1 -7 -2 -13 -8 -13 -14 0 -13
13 2 28 9 9 9 12 0 12 -6 0 -9 6 -6 14 3 8 16 13 29 11 13 -1 26 4 29 11 3 7
13 11 23 9 10 -2 21 -4 26 -4z m-1653 -31 c0 -5 -2 -10 -4 -10 -3 0 -8 5 -11
10 -3 6 -1 10 4 10 6 0 11 -4 11 -10z m2575 1 c-3 -5 -1 -12 4 -15 8 -5 8 -34
1 -43 -2 -2 -3 -9 -4 -15 0 -7 -10 -14 -21 -15 l-20 -3 20 9 c11 5 16 10 11
10 -5 1 -3 7 3 15 10 11 8 17 -6 25 -10 6 -12 11 -5 11 6 0 11 3 11 8 -2 12 1
22 7 22 3 0 3 -4 -1 -9z m-2568 -67 c-3 -3 -12 -4 -19 -1 -8 3 -5 6 6 6 11 1
17 -2 13 -5z m759 -23 c-3 -4 6 -18 19 -31 19 -18 27 -21 39 -11 16 14 26 -2
19 -30 -4 -14 -8 -13 -30 7 -14 13 -31 20 -41 17 -11 -5 -14 -2 -9 11 4 11 1
19 -9 23 -13 5 -13 7 -2 14 17 11 20 11 14 0z m1794 -42 c0 -6 -4 -7 -10 -4
-5 3 -10 11 -10 16 0 6 5 7 10 4 6 -3 10 -11 10 -16z m-1115 -18 c3 -5 2 -12
-3 -15 -5 -3 -9 1 -9 9 0 17 3 19 12 6z m1132 -6 c0 -8 -4 -15 -9 -15 -10 0
-11 14 -1 23 9 10 10 9 10 -8z m-1782 -4 c3 -5 2 -12 -3 -15 -5 -3 -9 1 -9 9
0 17 3 19 12 6z m-798 -21 c-1 -21 -10 -18 -13 5 -1 8 2 15 6 15 5 0 8 -9 7
-20z m884 -13 c-7 -7 -5 -14 6 -22 13 -10 13 -14 3 -20 -8 -5 -11 -4 -7 2 4 6
0 14 -9 17 -8 3 -12 10 -9 16 3 5 0 10 -7 10 -10 0 -9 3 2 9 18 12 35 2 21
-12z m1670 -10 c-10 -9 -11 -8 -5 6 3 10 9 15 12 12 3 -3 0 -11 -7 -18z
m-2544 -13 c-3 -3 -12 -4 -19 -1 -8 3 -5 6 6 6 11 1 17 -2 13 -5z m1384 -17
c-10 -9 -11 -8 -5 6 3 10 9 15 12 12 3 -3 0 -11 -7 -18z m-1381 -7 c0 -5 -8
-10 -17 -10 -15 0 -16 2 -3 10 19 12 20 12 20 0z m10 -27 c0 -1 -8 -7 -18 -12
-13 -7 -19 -6 -19 2 0 7 9 13 19 13 10 0 18 -1 18 -3z m2534 -43 c-5 -5 -10 3
-11 18 -1 22 0 24 9 8 6 -10 6 -22 2 -26z m-1521 -3 c4 3 7 2 7 -4 0 -6 -12
-10 -27 -10 -16 0 -22 2 -15 4 6 3 9 10 5 16 -5 8 -2 8 9 0 8 -7 18 -10 21 -6z
m-109 -5 c3 -5 -1 -9 -9 -9 -8 0 -12 4 -9 9 3 4 7 8 9 8 2 0 6 -4 9 -8z m1651
-1 c-3 -5 -1 -12 4 -15 8 -5 8 -34 1 -43 -2 -2 -3 -9 -4 -15 0 -7 -10 -14 -21
-15 l-20 -3 20 9 c11 5 16 10 11 10 -5 1 -3 7 3 15 10 11 8 17 -6 25 -10 6
-12 11 -5 11 6 0 11 3 11 8 -2 12 1 22 7 22 3 0 3 -4 -1 -9z m-1558 -43 c-3
-8 -6 -5 -6 6 -1 11 2 17 5 13 3 -3 4 -12 1 -19z m354 -15 c-10 -4 -10 -7 -1
-13 9 -5 8 -9 -3 -13 -13 -5 -16 5 -8 31 1 1 7 2 14 1 8 0 8 -2 -2 -6z m-1371
-22 c0 -6 -4 -12 -8 -15 -5 -3 -9 1 -9 9 0 8 4 15 9 15 4 0 8 -4 8 -9z m1395
-29 c-3 -3 -11 0 -18 7 -9 10 -8 11 6 5 10 -3 15 -9 12 -12z m-1388 -14 c0
-13 -1 -17 -4 -10 -3 6 -9 10 -14 6 -5 -3 -9 -1 -9 5 0 5 6 12 13 14 6 3 12 6
12 6 1 1 1 -9 2 -21z m1073 -2 c-7 -7 -13 -7 -20 0 -6 6 -3 10 10 10 13 0 16
-4 10 -10z m1480 -7 c0 -6 -4 -7 -10 -4 -5 3 -10 11 -10 16 0 6 5 7 10 4 6 -3
10 -11 10 -16z m17 -24 c0 -8 -4 -15 -9 -15 -10 0 -11 14 -1 23 9 10 10 9 10
-8z m-2577 -5 c0 -5 -2 -10 -4 -10 -3 0 -8 5 -11 10 -3 6 -1 10 4 10 6 0 11
-4 11 -10z m1230 6 c0 -2 -7 -7 -16 -10 -8 -3 -12 -2 -9 4 6 10 25 14 25 6z
m35 -6 c3 -6 -1 -7 -9 -4 -18 7 -21 14 -7 14 6 0 13 -4 16 -10z m1286 -43
c-10 -9 -11 -8 -5 6 3 10 9 15 12 12 3 -3 0 -11 -7 -18z m-2547 -15 c3 -5 -1
-9 -9 -9 -8 0 -12 4 -9 9 3 4 7 8 9 8 2 0 6 -4 9 -8z m2550 -92 c-5 -5 -10 3
-11 18 -1 22 0 24 9 8 6 -10 6 -22 2 -26z m21 -9 c-3 -5 -1 -12 4 -15 8 -5 8
-34 1 -43 -2 -2 -3 -9 -4 -15 0 -7 -10 -14 -21 -15 l-20 -3 20 9 c11 5 16 10
11 10 -5 1 -3 7 3 15 10 11 8 17 -6 25 -10 6 -12 11 -5 11 6 0 11 3 11 8 -2
12 1 22 7 22 3 0 3 -4 -1 -9z m-2565 -35 c-7 -7 -13 -7 -20 0 -6 6 -3 10 10
10 13 0 16 -4 10 -10z m-10 -26 c0 -5 -2 -10 -4 -10 -3 0 -8 5 -11 10 -3 6 -1
10 4 10 6 0 11 -4 11 -10z m2560 -71 c0 -6 -4 -7 -10 -4 -5 3 -10 11 -10 16 0
6 5 7 10 4 6 -3 10 -11 10 -16z m17 -24 c0 -8 -4 -15 -9 -15 -10 0 -11 14 -1
23 9 10 10 9 10 -8z m-2567 -4 c0 -5 -7 -12 -16 -15 -14 -5 -15 -4 -4 9 14 17
20 19 20 6z m2541 -44 c-10 -9 -11 -8 -5 6 3 10 9 15 12 12 3 -3 0 -11 -7 -18z
m-2551 -36 c0 -6 -4 -12 -8 -15 -5 -3 -9 1 -9 9 0 8 4 15 9 15 4 0 8 -4 8 -9z
m7 -43 c0 -13 -1 -17 -4 -10 -3 6 -9 10 -14 6 -5 -3 -9 -1 -9 5 0 5 6 12 13
14 6 3 12 6 12 6 1 1 1 -9 2 -21z m2547 -28 c-5 -5 -10 3 -11 18 -1 22 0 24 9
8 6 -10 6 -22 2 -26z m-2554 -10 c0 -5 -2 -10 -4 -10 -3 0 -8 5 -11 10 -3 6
-1 10 4 10 6 0 11 -4 11 -10z m2575 1 c-3 -5 -1 -12 4 -15 8 -5 8 -34 1 -43
-2 -2 -3 -9 -4 -15 0 -7 -10 -14 -21 -15 l-20 -3 20 9 c11 5 16 10 11 10 -5 1
-3 7 3 15 10 11 8 17 -6 25 -10 6 -12 11 -5 11 6 0 11 3 11 8 -2 12 1 22 7 22
3 0 3 -4 -1 -9z m-2568 -67 c-3 -3 -12 -4 -19 -1 -8 3 -5 6 6 6 11 1 17 -2 13
-5z m2553 -65 c0 -6 -4 -7 -10 -4 -5 3 -10 11 -10 16 0 6 5 7 10 4 6 -3 10
-11 10 -16z m17 -24 c0 -8 -4 -15 -9 -15 -10 0 -11 14 -1 23 9 10 10 9 10 -8z
m-2580 -25 c-1 -21 -10 -18 -13 5 -1 8 2 15 6 15 5 0 8 -9 7 -20z m2554 -23
c-10 -9 -11 -8 -5 6 3 10 9 15 12 12 3 -3 0 -11 -7 -18z m-2541 -38 c0 -4 -6
-9 -13 -12 -8 -3 -14 0 -14 7 0 7 6 13 14 13 7 0 13 -4 13 -8z m2544 -69 c-5
-5 -10 3 -11 18 -1 22 0 24 9 8 6 -10 6 -22 2 -26z m-2544 10 c0 -5 -8 -10
-17 -10 -15 0 -16 2 -3 10 19 12 20 12 20 0z m2565 -19 c-3 -5 -1 -12 4 -15 8
-5 8 -34 1 -43 -2 -2 -3 -9 -4 -15 0 -7 -10 -14 -21 -15 l-20 -3 20 9 c11 5
16 10 11 10 -5 1 -3 7 3 15 10 11 8 17 -6 25 -10 6 -12 11 -5 11 6 0 11 3 11
8 -2 12 1 22 7 22 3 0 3 -4 -1 -9z m-2578 -23 c2 -17 0 -19 -7 -8 -5 8 -6 18
-4 22 8 12 10 10 11 -14z m2563 -109 c0 -6 -4 -7 -10 -4 -5 3 -10 11 -10 16 0
6 5 7 10 4 6 -3 10 -11 10 -16z m17 -24 c0 -8 -4 -15 -9 -15 -10 0 -11 14 -1
23 9 10 10 9 10 -8z m-26 -48 c-10 -9 -11 -8 -5 6 3 10 9 15 12 12 3 -3 0 -11
-7 -18z m-2545 1 c4 -6 3 -8 -3 -5 -6 4 -16 0 -23 -8 -7 -8 -19 -15 -27 -15
-8 0 -11 -4 -8 -10 3 -5 1 -10 -4 -10 -23 0 -6 33 19 38 8 2 17 8 18 13 5 13
19 11 28 -3z m-106 -48 c0 -5 -5 -10 -11 -10 -5 0 -7 5 -4 10 3 6 8 10 11 10
2 0 4 -4 4 -10z m2660 -30 c0 -5 -5 -10 -11 -10 -5 0 -7 5 -4 10 3 6 8 10 11
10 2 0 4 -4 4 -10z m17 -17 c-4 -3 -2 -12 3 -18 7 -9 5 -17 -7 -26 -11 -9 -14
-10 -9 -1 5 8 1 12 -11 13 -16 0 -16 1 2 9 11 5 16 9 12 9 -9 1 1 21 10 21 4
0 3 -3 0 -7z m-17 -68 c5 3 11 1 14 -4 4 -5 -2 -8 -11 -7 -9 2 -18 8 -19 15
-1 6 0 7 3 1 2 -5 9 -8 13 -5z"/>
<path d="M97 2279 c7 -7 15 -10 18 -7 3 3 -2 9 -12 12 -14 6 -15 5 -6 -5z"/>
<path d="M2480 2620 c-9 -6 -10 -10 -3 -10 6 0 15 5 18 10 8 12 4 12 -15 0z"/>
<path d="M2873 2600 c-30 -12 -29 -18 2 -12 14 2 25 8 25 13 0 5 -1 9 -2 8 -2
0 -13 -4 -25 -9z"/>
<path d="M2781 2582 c-1 -7 -5 -10 -11 -7 -6 4 -7 -1 -3 -11 5 -13 3 -15 -7
-9 -9 6 -11 4 -5 -5 7 -11 10 -11 19 2 7 13 12 14 20 5 6 -7 10 -10 9 -8 -2 2
2 10 8 17 7 8 6 14 -2 20 -8 4 -9 3 -5 -4 4 -7 3 -12 -3 -12 -5 0 -12 6 -14
13 -4 9 -6 9 -6 -1z"/>
<path d="M2870 2569 c0 -5 5 -7 10 -4 6 3 10 8 10 11 0 2 -4 4 -10 4 -5 0 -10
-5 -10 -11z"/>
<path d="M2433 2548 c-2 -18 0 -20 7 -8 12 18 13 30 2 30 -4 0 -9 -10 -9 -22z"/>
<path d="M2320 2480 c-9 -6 -10 -10 -3 -10 6 0 15 5 18 10 8 12 4 12 -15 0z"/>
<path d="M2279 2413 c-13 -17 -13 -17 6 -3 11 8 22 16 24 17 2 2 0 3 -6 3 -6
0 -17 -8 -24 -17z"/>
<path d="M290 2381 c0 -6 5 -13 10 -16 6 -4 7 -11 4 -17 -4 -7 -2 -8 5 -4 9 6
9 11 -1 23 -11 14 -10 15 12 9 19 -6 21 -5 10 3 -19 13 -40 14 -40 2z"/>
<path d="M353 2335 c0 -8 4 -12 9 -9 5 3 6 10 3 15 -9 13 -12 11 -12 -6z"/>
<path d="M365 2300 c3 -5 8 -10 11 -10 2 0 4 5 4 10 0 6 -5 10 -11 10 -5 0 -7
-4 -4 -10z"/>
<path d="M417 2299 c7 -7 15 -10 18 -7 3 3 -2 9 -12 12 -14 6 -15 5 -6 -5z"/>
<path d="M23 2277 c-3 -5 0 -14 6 -20 9 -9 10 -7 5 8 l-7 20 24 -20 c13 -11
18 -13 11 -4 -6 9 -10 18 -7 21 3 2 -2 5 -10 5 -9 0 -18 -4 -22 -10z"/>
<path d="M2770 2280 c0 -5 5 -10 11 -10 5 0 7 5 4 10 -3 6 -8 10 -11 10 -2 0
-4 -4 -4 -10z"/>
<path d="M415 2270 c3 -5 8 -10 11 -10 2 0 4 5 4 10 0 6 -5 10 -11 10 -5 0 -7
-4 -4 -10z"/>
<path d="M2132 2226 c7 -8 17 -12 22 -9 4 3 2 9 -5 14 -22 13 -31 11 -17 -5z"/>
<path d="M2089 2178 c7 -10 10 -19 5 -20 -5 0 -13 -2 -19 -3 -5 -2 -18 -3 -27
-4 -10 0 -18 -5 -18 -11 0 -12 22 -9 32 5 5 6 8 5 8 -4 0 -10 3 -11 13 -2 8 6
16 10 18 8 2 -1 3 0 2 2 -2 2 3 11 9 20 7 9 8 13 4 9 -5 -4 -16 -2 -25 5 -14
11 -14 10 -2 -5z"/>
<path d="M140 2141 c0 -5 8 -15 18 -22 15 -12 16 -12 5 2 -7 9 -10 19 -6 22 3
4 1 7 -5 7 -7 0 -12 -4 -12 -9z"/>
<path d="M1975 2120 c-3 -5 -1 -10 4 -10 6 0 11 5 11 10 0 6 -2 10 -4 10 -3 0
-8 -4 -11 -10z"/>
<path d="M123 2075 c-3 -9 -3 -18 -1 -21 3 -3 8 4 11 16 6 23 -1 27 -10 5z"/>
<path d="M2775 2081 c-3 -5 -2 -12 3 -15 5 -3 9 1 9 9 0 17 -3 19 -12 6z"/>
<path d="M630 2070 c0 -5 5 -10 11 -10 5 0 7 5 4 10 -3 6 -8 10 -11 10 -2 0
-4 -4 -4 -10z"/>
<path d="M2771 2024 c0 -11 3 -14 6 -6 3 7 2 16 -1 19 -3 4 -6 -2 -5 -13z"/>
<path d="M133 1935 c0 -8 4 -12 9 -9 5 3 6 10 3 15 -9 13 -12 11 -12 -6z"/>
<path d="M1845 1940 c3 -5 8 -10 11 -10 2 0 4 5 4 10 0 6 -5 10 -11 10 -5 0
-7 -4 -4 -10z"/>
<path d="M907 1784 c-9 -9 4 -35 14 -28 5 3 9 12 9 20 0 14 -12 19 -23 8z"/>
<path d="M1670 1778 c0 -9 7 -19 16 -22 15 -6 15 -4 3 11 -7 10 -15 20 -16 22
-2 2 -3 -3 -3 -11z"/>
<path d="M2775 1761 c-3 -5 -2 -12 3 -15 5 -3 9 1 9 9 0 17 -3 19 -12 6z"/>
<path d="M118 1708 c2 -10 6 -18 7 -18 1 0 5 8 7 18 3 11 0 19 -7 19 -7 0 -10
-8 -7 -19z"/>
<path d="M2771 1704 c0 -11 3 -14 6 -6 3 7 2 16 -1 19 -3 4 -6 -2 -5 -13z"/>
<path d="M1519 1669 l-24 -20 28 17 c15 9 27 18 27 20 0 8 -8 4 -31 -17z"/>
<path d="M1550 1660 c0 -5 7 -7 15 -4 8 4 15 8 15 10 0 2 -7 4 -15 4 -8 0 -15
-4 -15 -10z"/>
<path d="M115 1621 c-3 -5 -2 -12 3 -15 5 -3 9 1 9 9 0 17 -3 19 -12 6z"/>
<path d="M115 1560 c-3 -5 -1 -10 4 -10 6 0 11 5 11 10 0 6 -2 10 -4 10 -3 0
-8 -4 -11 -10z"/>
<path d="M1132 1565 c4 -4 2 -13 -5 -19 -7 -6 -10 -10 -8 -9 2 2 10 -2 17 -8
8 -7 14 -6 20 2 5 8 3 9 -6 4 -10 -6 -12 -4 -7 8 3 9 1 19 -6 23 -7 4 -9 4 -5
-1z"/>
<path d="M1184 1542 c4 -3 14 -7 22 -8 9 -1 13 0 10 4 -4 3 -14 7 -22 8 -9 1
-13 0 -10 -4z"/>
<path d="M1510 1530 c-9 -6 -10 -10 -3 -10 7 0 10 -10 7 -27 -3 -15 -2 -24 2
-21 5 6 15 68 10 68 0 0 -8 -5 -16 -10z"/>
<path d="M1235 1501 c-3 -5 -2 -12 3 -15 5 -3 9 1 9 9 0 17 -3 19 -12 6z"/>
<path d="M2775 1441 c-3 -5 -2 -12 3 -15 5 -3 9 1 9 9 0 17 -3 19 -12 6z"/>
<path d="M1274 1416 c1 -8 5 -18 8 -22 4 -3 5 1 4 10 -1 8 -5 18 -8 22 -4 3
-5 -1 -4 -10z"/>
<path d="M1480 1415 c-8 -10 -9 -15 -2 -15 6 0 9 -7 6 -15 -4 -8 -2 -15 3 -15
5 0 9 14 8 30 0 35 1 34 -15 15z"/>
<path d="M1305 1391 c-3 -5 0 -13 6 -17 7 -4 9 -3 5 4 -3 5 0 13 6 15 9 4 10
6 1 6 -6 1 -14 -3 -18 -8z"/>
<path d="M1452 1386 c7 -8 15 -12 17 -11 5 6 -10 25 -20 25 -5 0 -4 -6 3 -14z"/>
<path d="M2771 1384 c0 -11 3 -14 6 -6 3 7 2 16 -1 19 -3 4 -6 -2 -5 -13z"/>
<path d="M118 1228 c2 -10 6 -18 7 -18 1 0 5 8 7 18 3 11 0 19 -7 19 -7 0 -10
-8 -7 -19z"/>
<path d="M2775 1121 c-3 -5 -2 -12 3 -15 5 -3 9 1 9 9 0 17 -3 19 -12 6z"/>
<path d="M2771 1064 c0 -11 3 -14 6 -6 3 7 2 16 -1 19 -3 4 -6 -2 -5 -13z"/>
<path d="M133 975 c0 -8 4 -12 9 -9 5 3 6 10 3 15 -9 13 -12 11 -12 -6z"/>
<path d="M2775 801 c-3 -5 -2 -12 3 -15 5 -3 9 1 9 9 0 17 -3 19 -12 6z"/>
<path d="M118 748 c2 -10 6 -18 7 -18 1 0 5 8 7 18 3 11 0 19 -7 19 -7 0 -10
-8 -7 -19z"/>
<path d="M2771 744 c0 -11 3 -14 6 -6 3 7 2 16 -1 19 -3 4 -6 -2 -5 -13z"/>
<path d="M123 635 c-3 -9 -3 -18 -1 -21 3 -3 8 4 11 16 6 23 -1 27 -10 5z"/>
<path d="M115 541 c-3 -5 -2 -12 3 -15 5 -3 9 1 9 9 0 17 -3 19 -12 6z"/>
<path d="M125 500 c-3 -5 -1 -10 4 -10 6 0 11 5 11 10 0 6 -2 10 -4 10 -3 0
-8 -4 -11 -10z"/>
<path d="M2775 481 c-3 -5 -2 -12 3 -15 5 -3 9 1 9 9 0 17 -3 19 -12 6z"/>
<path d="M2771 424 c0 -11 3 -14 6 -6 3 7 2 16 -1 19 -3 4 -6 -2 -5 -13z"/>
<path d="M45 320 c-4 -6 -11 -7 -17 -4 -7 4 -8 2 -4 -5 6 -9 11 -9 22 0 14 11
18 19 10 19 -3 0 -8 -5 -11 -10z"/>
</g>
</svg>
